<mxfile host="Electron" modified="2023-04-14T11:57:40.569Z" agent="Mozilla/5.0 (Windows NT 10.0; Win64; x64) AppleWebKit/537.36 (KHTML, like Gecko) draw.io/21.1.2 Chrome/106.0.5249.199 Electron/21.4.3 Safari/537.36" etag="qaI59d3XICavchcnEOom" version="21.1.2" type="device">
  <diagram name="PÃ¡gina-1" id="Ucw3zztrKxae9jBWHQiQ">
    <mxGraphModel dx="1418" dy="828" grid="1" gridSize="10" guides="1" tooltips="1" connect="1" arrows="1" fold="1" page="1" pageScale="1" pageWidth="827" pageHeight="1169" math="0" shadow="0">
      <root>
        <mxCell id="0" />
        <mxCell id="1" parent="0" />
        <mxCell id="YksgReI-AQf4v3hNSarA-10" style="edgeStyle=orthogonalEdgeStyle;rounded=0;orthogonalLoop=1;jettySize=auto;html=1;exitX=0.5;exitY=1;exitDx=0;exitDy=0;entryX=0.5;entryY=0;entryDx=0;entryDy=0;" parent="1" source="YksgReI-AQf4v3hNSarA-1" target="YksgReI-AQf4v3hNSarA-6" edge="1">
          <mxGeometry relative="1" as="geometry" />
        </mxCell>
        <mxCell id="YksgReI-AQf4v3hNSarA-1" value="Inicio" style="rounded=1;whiteSpace=wrap;html=1;" parent="1" vertex="1">
          <mxGeometry x="384" y="160" width="120" height="60" as="geometry" />
        </mxCell>
        <mxCell id="YksgReI-AQf4v3hNSarA-3" value="Final" style="rounded=1;whiteSpace=wrap;html=1;" parent="1" vertex="1">
          <mxGeometry x="384" y="575" width="120" height="60" as="geometry" />
        </mxCell>
        <mxCell id="YksgReI-AQf4v3hNSarA-15" style="edgeStyle=orthogonalEdgeStyle;rounded=0;orthogonalLoop=1;jettySize=auto;html=1;exitX=0.5;exitY=1;exitDx=0;exitDy=0;entryX=1;entryY=0.75;entryDx=0;entryDy=0;" parent="1" source="YksgReI-AQf4v3hNSarA-5" target="YksgReI-AQf4v3hNSarA-3" edge="1">
          <mxGeometry relative="1" as="geometry">
            <Array as="points">
              <mxPoint x="810" y="430" />
              <mxPoint x="810" y="620" />
            </Array>
          </mxGeometry>
        </mxCell>
        <mxCell id="YksgReI-AQf4v3hNSarA-5" value="doSomething()" style="rounded=1;whiteSpace=wrap;html=1;" parent="1" vertex="1">
          <mxGeometry x="660" y="370" width="120" height="60" as="geometry" />
        </mxCell>
        <mxCell id="YksgReI-AQf4v3hNSarA-11" style="edgeStyle=orthogonalEdgeStyle;rounded=0;orthogonalLoop=1;jettySize=auto;html=1;exitX=0.5;exitY=1;exitDx=0;exitDy=0;entryX=0.5;entryY=0;entryDx=0;entryDy=0;" parent="1" source="YksgReI-AQf4v3hNSarA-6" target="YksgReI-AQf4v3hNSarA-7" edge="1">
          <mxGeometry relative="1" as="geometry" />
        </mxCell>
        <mxCell id="YksgReI-AQf4v3hNSarA-16" style="edgeStyle=orthogonalEdgeStyle;rounded=0;orthogonalLoop=1;jettySize=auto;html=1;exitX=0;exitY=0.5;exitDx=0;exitDy=0;entryX=0;entryY=0.5;entryDx=0;entryDy=0;" parent="1" source="YksgReI-AQf4v3hNSarA-6" target="YksgReI-AQf4v3hNSarA-8" edge="1">
          <mxGeometry relative="1" as="geometry">
            <Array as="points">
              <mxPoint x="340" y="300" />
              <mxPoint x="340" y="500" />
            </Array>
          </mxGeometry>
        </mxCell>
        <mxCell id="YksgReI-AQf4v3hNSarA-6" value="a" style="rounded=1;whiteSpace=wrap;html=1;" parent="1" vertex="1">
          <mxGeometry x="384" y="270" width="120" height="60" as="geometry" />
        </mxCell>
        <mxCell id="YksgReI-AQf4v3hNSarA-12" style="edgeStyle=orthogonalEdgeStyle;rounded=0;orthogonalLoop=1;jettySize=auto;html=1;exitX=0.5;exitY=1;exitDx=0;exitDy=0;entryX=0.5;entryY=0;entryDx=0;entryDy=0;" parent="1" source="YksgReI-AQf4v3hNSarA-7" target="YksgReI-AQf4v3hNSarA-8" edge="1">
          <mxGeometry relative="1" as="geometry" />
        </mxCell>
        <mxCell id="YksgReI-AQf4v3hNSarA-21" style="edgeStyle=orthogonalEdgeStyle;rounded=0;orthogonalLoop=1;jettySize=auto;html=1;exitX=1;exitY=0.5;exitDx=0;exitDy=0;entryX=0;entryY=0.5;entryDx=0;entryDy=0;" parent="1" source="YksgReI-AQf4v3hNSarA-7" target="YksgReI-AQf4v3hNSarA-5" edge="1">
          <mxGeometry relative="1" as="geometry" />
        </mxCell>
        <mxCell id="YksgReI-AQf4v3hNSarA-7" value="b" style="rounded=1;whiteSpace=wrap;html=1;" parent="1" vertex="1">
          <mxGeometry x="384" y="370" width="120" height="60" as="geometry" />
        </mxCell>
        <mxCell id="YksgReI-AQf4v3hNSarA-13" style="edgeStyle=orthogonalEdgeStyle;rounded=0;orthogonalLoop=1;jettySize=auto;html=1;exitX=0.5;exitY=1;exitDx=0;exitDy=0;entryX=0.5;entryY=0;entryDx=0;entryDy=0;" parent="1" source="YksgReI-AQf4v3hNSarA-8" target="YksgReI-AQf4v3hNSarA-3" edge="1">
          <mxGeometry relative="1" as="geometry" />
        </mxCell>
        <mxCell id="YksgReI-AQf4v3hNSarA-24" style="edgeStyle=orthogonalEdgeStyle;rounded=0;orthogonalLoop=1;jettySize=auto;html=1;exitX=1;exitY=0.5;exitDx=0;exitDy=0;entryX=0;entryY=0.5;entryDx=0;entryDy=0;" parent="1" source="YksgReI-AQf4v3hNSarA-8" target="YksgReI-AQf4v3hNSarA-9" edge="1">
          <mxGeometry relative="1" as="geometry" />
        </mxCell>
        <mxCell id="YksgReI-AQf4v3hNSarA-8" value="c" style="rounded=1;whiteSpace=wrap;html=1;" parent="1" vertex="1">
          <mxGeometry x="384" y="470" width="120" height="60" as="geometry" />
        </mxCell>
        <mxCell id="YksgReI-AQf4v3hNSarA-14" style="edgeStyle=orthogonalEdgeStyle;rounded=0;orthogonalLoop=1;jettySize=auto;html=1;exitX=0.5;exitY=1;exitDx=0;exitDy=0;entryX=1;entryY=0.5;entryDx=0;entryDy=0;" parent="1" source="YksgReI-AQf4v3hNSarA-9" target="YksgReI-AQf4v3hNSarA-3" edge="1">
          <mxGeometry relative="1" as="geometry" />
        </mxCell>
        <mxCell id="YksgReI-AQf4v3hNSarA-9" value="doSthElse()" style="rounded=1;whiteSpace=wrap;html=1;" parent="1" vertex="1">
          <mxGeometry x="660" y="470" width="120" height="60" as="geometry" />
        </mxCell>
        <mxCell id="YksgReI-AQf4v3hNSarA-17" value="F" style="text;html=1;align=center;verticalAlign=middle;resizable=0;points=[];autosize=1;strokeColor=none;fillColor=none;" parent="1" vertex="1">
          <mxGeometry x="350" y="270" width="30" height="30" as="geometry" />
        </mxCell>
        <mxCell id="YksgReI-AQf4v3hNSarA-18" value="V" style="text;html=1;align=center;verticalAlign=middle;resizable=0;points=[];autosize=1;strokeColor=none;fillColor=none;" parent="1" vertex="1">
          <mxGeometry x="445" y="335" width="30" height="30" as="geometry" />
        </mxCell>
        <mxCell id="YksgReI-AQf4v3hNSarA-22" value="V" style="text;html=1;align=center;verticalAlign=middle;resizable=0;points=[];autosize=1;strokeColor=none;fillColor=none;" parent="1" vertex="1">
          <mxGeometry x="565" y="370" width="30" height="30" as="geometry" />
        </mxCell>
        <mxCell id="YksgReI-AQf4v3hNSarA-23" value="F" style="text;html=1;align=center;verticalAlign=middle;resizable=0;points=[];autosize=1;strokeColor=none;fillColor=none;" parent="1" vertex="1">
          <mxGeometry x="400" y="440" width="30" height="30" as="geometry" />
        </mxCell>
        <mxCell id="YksgReI-AQf4v3hNSarA-26" value="V" style="text;html=1;align=center;verticalAlign=middle;resizable=0;points=[];autosize=1;strokeColor=none;fillColor=none;" parent="1" vertex="1">
          <mxGeometry x="565" y="470" width="30" height="30" as="geometry" />
        </mxCell>
        <mxCell id="YksgReI-AQf4v3hNSarA-27" value="F" style="text;html=1;align=center;verticalAlign=middle;resizable=0;points=[];autosize=1;strokeColor=none;fillColor=none;" parent="1" vertex="1">
          <mxGeometry x="445" y="535" width="30" height="30" as="geometry" />
        </mxCell>
        <mxCell id="MEqw97iweyBMr6u2Ty3s-1" value="Complejidad ciclomatica = 4" style="text;html=1;align=center;verticalAlign=middle;resizable=0;points=[];autosize=1;strokeColor=none;fillColor=none;" vertex="1" parent="1">
          <mxGeometry x="70" y="130" width="170" height="30" as="geometry" />
        </mxCell>
        <mxCell id="MEqw97iweyBMr6u2Ty3s-2" value="Prueba camino" style="shape=table;startSize=30;container=1;collapsible=0;childLayout=tableLayout;strokeColor=default;fontSize=16;" vertex="1" parent="1">
          <mxGeometry x="10" y="180" width="310" height="420" as="geometry" />
        </mxCell>
        <mxCell id="MEqw97iweyBMr6u2Ty3s-3" value="" style="shape=tableRow;horizontal=0;startSize=0;swimlaneHead=0;swimlaneBody=0;strokeColor=inherit;top=0;left=0;bottom=0;right=0;collapsible=0;dropTarget=0;fillColor=none;points=[[0,0.5],[1,0.5]];portConstraint=eastwest;fontSize=16;" vertex="1" parent="MEqw97iweyBMr6u2Ty3s-2">
          <mxGeometry y="30" width="310" height="79" as="geometry" />
        </mxCell>
        <mxCell id="MEqw97iweyBMr6u2Ty3s-4" value="1,2,3,6" style="shape=partialRectangle;html=1;whiteSpace=wrap;connectable=0;strokeColor=inherit;overflow=hidden;fillColor=none;top=0;left=0;bottom=0;right=0;pointerEvents=1;fontSize=16;" vertex="1" parent="MEqw97iweyBMr6u2Ty3s-3">
          <mxGeometry width="84" height="79" as="geometry">
            <mxRectangle width="84" height="79" as="alternateBounds" />
          </mxGeometry>
        </mxCell>
        <mxCell id="MEqw97iweyBMr6u2Ty3s-5" value="a = V || b = V" style="shape=partialRectangle;html=1;whiteSpace=wrap;connectable=0;strokeColor=inherit;overflow=hidden;fillColor=none;top=0;left=0;bottom=0;right=0;pointerEvents=1;fontSize=16;" vertex="1" parent="MEqw97iweyBMr6u2Ty3s-3">
          <mxGeometry x="84" width="123" height="79" as="geometry">
            <mxRectangle width="123" height="79" as="alternateBounds" />
          </mxGeometry>
        </mxCell>
        <mxCell id="MEqw97iweyBMr6u2Ty3s-6" value="doSomething" style="shape=partialRectangle;html=1;whiteSpace=wrap;connectable=0;strokeColor=inherit;overflow=hidden;fillColor=none;top=0;left=0;bottom=0;right=0;pointerEvents=1;fontSize=16;" vertex="1" parent="MEqw97iweyBMr6u2Ty3s-3">
          <mxGeometry x="207" width="103" height="79" as="geometry">
            <mxRectangle width="103" height="79" as="alternateBounds" />
          </mxGeometry>
        </mxCell>
        <mxCell id="MEqw97iweyBMr6u2Ty3s-7" value="" style="shape=tableRow;horizontal=0;startSize=0;swimlaneHead=0;swimlaneBody=0;strokeColor=inherit;top=0;left=0;bottom=0;right=0;collapsible=0;dropTarget=0;fillColor=none;points=[[0,0.5],[1,0.5]];portConstraint=eastwest;fontSize=16;" vertex="1" parent="MEqw97iweyBMr6u2Ty3s-2">
          <mxGeometry y="109" width="310" height="76" as="geometry" />
        </mxCell>
        <mxCell id="MEqw97iweyBMr6u2Ty3s-8" value="1,4,5,6" style="shape=partialRectangle;html=1;whiteSpace=wrap;connectable=0;strokeColor=inherit;overflow=hidden;fillColor=none;top=0;left=0;bottom=0;right=0;pointerEvents=1;fontSize=16;" vertex="1" parent="MEqw97iweyBMr6u2Ty3s-7">
          <mxGeometry width="84" height="76" as="geometry">
            <mxRectangle width="84" height="76" as="alternateBounds" />
          </mxGeometry>
        </mxCell>
        <mxCell id="MEqw97iweyBMr6u2Ty3s-9" value="a = F || c = V" style="shape=partialRectangle;html=1;whiteSpace=wrap;connectable=0;strokeColor=inherit;overflow=hidden;fillColor=none;top=0;left=0;bottom=0;right=0;pointerEvents=1;fontSize=16;" vertex="1" parent="MEqw97iweyBMr6u2Ty3s-7">
          <mxGeometry x="84" width="123" height="76" as="geometry">
            <mxRectangle width="123" height="76" as="alternateBounds" />
          </mxGeometry>
        </mxCell>
        <mxCell id="MEqw97iweyBMr6u2Ty3s-10" value="doSthElse()" style="shape=partialRectangle;html=1;whiteSpace=wrap;connectable=0;strokeColor=inherit;overflow=hidden;fillColor=none;top=0;left=0;bottom=0;right=0;pointerEvents=1;fontSize=16;" vertex="1" parent="MEqw97iweyBMr6u2Ty3s-7">
          <mxGeometry x="207" width="103" height="76" as="geometry">
            <mxRectangle width="103" height="76" as="alternateBounds" />
          </mxGeometry>
        </mxCell>
        <mxCell id="MEqw97iweyBMr6u2Ty3s-11" value="" style="shape=tableRow;horizontal=0;startSize=0;swimlaneHead=0;swimlaneBody=0;strokeColor=inherit;top=0;left=0;bottom=0;right=0;collapsible=0;dropTarget=0;fillColor=none;points=[[0,0.5],[1,0.5]];portConstraint=eastwest;fontSize=16;" vertex="1" parent="MEqw97iweyBMr6u2Ty3s-2">
          <mxGeometry y="185" width="310" height="80" as="geometry" />
        </mxCell>
        <mxCell id="MEqw97iweyBMr6u2Ty3s-12" value="1,4,6" style="shape=partialRectangle;html=1;whiteSpace=wrap;connectable=0;strokeColor=inherit;overflow=hidden;fillColor=none;top=0;left=0;bottom=0;right=0;pointerEvents=1;fontSize=16;" vertex="1" parent="MEqw97iweyBMr6u2Ty3s-11">
          <mxGeometry width="84" height="80" as="geometry">
            <mxRectangle width="84" height="80" as="alternateBounds" />
          </mxGeometry>
        </mxCell>
        <mxCell id="MEqw97iweyBMr6u2Ty3s-13" value="a = F || c = F" style="shape=partialRectangle;html=1;whiteSpace=wrap;connectable=0;strokeColor=inherit;overflow=hidden;fillColor=none;top=0;left=0;bottom=0;right=0;pointerEvents=1;fontSize=16;" vertex="1" parent="MEqw97iweyBMr6u2Ty3s-11">
          <mxGeometry x="84" width="123" height="80" as="geometry">
            <mxRectangle width="123" height="80" as="alternateBounds" />
          </mxGeometry>
        </mxCell>
        <mxCell id="MEqw97iweyBMr6u2Ty3s-14" value="Final" style="shape=partialRectangle;html=1;whiteSpace=wrap;connectable=0;strokeColor=inherit;overflow=hidden;fillColor=none;top=0;left=0;bottom=0;right=0;pointerEvents=1;fontSize=16;" vertex="1" parent="MEqw97iweyBMr6u2Ty3s-11">
          <mxGeometry x="207" width="103" height="80" as="geometry">
            <mxRectangle width="103" height="80" as="alternateBounds" />
          </mxGeometry>
        </mxCell>
        <mxCell id="MEqw97iweyBMr6u2Ty3s-24" value="" style="shape=tableRow;horizontal=0;startSize=0;swimlaneHead=0;swimlaneBody=0;top=0;left=0;bottom=0;right=0;dropTarget=0;collapsible=0;recursiveResize=0;expand=0;fontStyle=0;fillColor=none;strokeColor=inherit;" vertex="1" parent="MEqw97iweyBMr6u2Ty3s-2">
          <mxGeometry y="265" width="310" height="79" as="geometry" />
        </mxCell>
        <mxCell id="MEqw97iweyBMr6u2Ty3s-25" value="&lt;font style=&quot;font-size: 16px;&quot;&gt;1,2,4,5,6&lt;/font&gt;" style="connectable=0;recursiveResize=0;strokeColor=inherit;fillColor=none;align=center;whiteSpace=wrap;html=1;" vertex="1" parent="MEqw97iweyBMr6u2Ty3s-24">
          <mxGeometry width="84" height="79" as="geometry">
            <mxRectangle width="84" height="79" as="alternateBounds" />
          </mxGeometry>
        </mxCell>
        <mxCell id="MEqw97iweyBMr6u2Ty3s-26" value="&lt;font style=&quot;font-size: 16px;&quot;&gt;a = V || b = F || c = V&lt;/font&gt;" style="connectable=0;recursiveResize=0;strokeColor=inherit;fillColor=none;align=center;whiteSpace=wrap;html=1;" vertex="1" parent="MEqw97iweyBMr6u2Ty3s-24">
          <mxGeometry x="84" width="123" height="79" as="geometry">
            <mxRectangle width="123" height="79" as="alternateBounds" />
          </mxGeometry>
        </mxCell>
        <mxCell id="MEqw97iweyBMr6u2Ty3s-27" value="&lt;font style=&quot;font-size: 16px;&quot;&gt;doSthElse()&lt;/font&gt;" style="connectable=0;recursiveResize=0;strokeColor=inherit;fillColor=none;align=center;whiteSpace=wrap;html=1;" vertex="1" parent="MEqw97iweyBMr6u2Ty3s-24">
          <mxGeometry x="207" width="103" height="79" as="geometry">
            <mxRectangle width="103" height="79" as="alternateBounds" />
          </mxGeometry>
        </mxCell>
        <mxCell id="MEqw97iweyBMr6u2Ty3s-28" style="shape=tableRow;horizontal=0;startSize=0;swimlaneHead=0;swimlaneBody=0;top=0;left=0;bottom=0;right=0;dropTarget=0;collapsible=0;recursiveResize=0;expand=0;fontStyle=0;fillColor=none;strokeColor=inherit;" vertex="1" parent="MEqw97iweyBMr6u2Ty3s-2">
          <mxGeometry y="344" width="310" height="76" as="geometry" />
        </mxCell>
        <mxCell id="MEqw97iweyBMr6u2Ty3s-29" value="&lt;font style=&quot;font-size: 16px;&quot;&gt;1,2,4,6&lt;/font&gt;" style="connectable=0;recursiveResize=0;strokeColor=inherit;fillColor=none;align=center;whiteSpace=wrap;html=1;" vertex="1" parent="MEqw97iweyBMr6u2Ty3s-28">
          <mxGeometry width="84" height="76" as="geometry">
            <mxRectangle width="84" height="76" as="alternateBounds" />
          </mxGeometry>
        </mxCell>
        <mxCell id="MEqw97iweyBMr6u2Ty3s-30" value="a = V || b = F || c = F" style="connectable=0;recursiveResize=0;strokeColor=inherit;fillColor=none;align=center;whiteSpace=wrap;html=1;" vertex="1" parent="MEqw97iweyBMr6u2Ty3s-28">
          <mxGeometry x="84" width="123" height="76" as="geometry">
            <mxRectangle width="123" height="76" as="alternateBounds" />
          </mxGeometry>
        </mxCell>
        <mxCell id="MEqw97iweyBMr6u2Ty3s-31" value="&lt;font style=&quot;font-size: 16px;&quot;&gt;Final&lt;/font&gt;" style="connectable=0;recursiveResize=0;strokeColor=inherit;fillColor=none;align=center;whiteSpace=wrap;html=1;" vertex="1" parent="MEqw97iweyBMr6u2Ty3s-28">
          <mxGeometry x="207" width="103" height="76" as="geometry">
            <mxRectangle width="103" height="76" as="alternateBounds" />
          </mxGeometry>
        </mxCell>
        <mxCell id="MEqw97iweyBMr6u2Ty3s-15" value="3" style="ellipse;whiteSpace=wrap;html=1;" vertex="1" parent="1">
          <mxGeometry x="790" y="350" width="30" height="30" as="geometry" />
        </mxCell>
        <mxCell id="MEqw97iweyBMr6u2Ty3s-16" value="2" style="ellipse;whiteSpace=wrap;html=1;" vertex="1" parent="1">
          <mxGeometry x="350" y="385" width="30" height="30" as="geometry" />
        </mxCell>
        <mxCell id="MEqw97iweyBMr6u2Ty3s-17" value="4" style="ellipse;whiteSpace=wrap;html=1;" vertex="1" parent="1">
          <mxGeometry x="350" y="505" width="30" height="30" as="geometry" />
        </mxCell>
        <mxCell id="MEqw97iweyBMr6u2Ty3s-18" value="5" style="ellipse;whiteSpace=wrap;html=1;" vertex="1" parent="1">
          <mxGeometry x="740" y="535" width="30" height="30" as="geometry" />
        </mxCell>
        <mxCell id="MEqw97iweyBMr6u2Ty3s-19" value="6" style="ellipse;whiteSpace=wrap;html=1;" vertex="1" parent="1">
          <mxGeometry x="350" y="590" width="30" height="30" as="geometry" />
        </mxCell>
        <mxCell id="MEqw97iweyBMr6u2Ty3s-20" value="1" style="ellipse;whiteSpace=wrap;html=1;" vertex="1" parent="1">
          <mxGeometry x="510" y="285" width="30" height="30" as="geometry" />
        </mxCell>
      </root>
    </mxGraphModel>
  </diagram>
</mxfile>
